<svg width="41" height="41" viewBox="0 0 41 41" fill="none" xmlns="http://www.w3.org/2000/svg">
<circle cx="20" cy="21" r="20" fill="#EA0B0B"/>
<path d="M10.7514 30.5232L10.7619 24.0881C0.52112 21.3409 5.54881 7.87537 14.3564 13.4383C3.70895 9.25136 5.20151 23.63 13.1406 21.7274L13.1181 27.6513C22.2308 21.467 28.1369 26.2285 31.0856 29.794C26.4085 25.8667 20.679 24.5963 14.7736 30.8884L10.6946 35.0366L10.7514 30.5232Z" fill="black"/>
<path d="M24.4406 9.92202C19.7282 2.79537 13.7886 6.91987 12.5882 11.0623C15.5658 6.92656 20.3139 4.57478 23.8371 12.8817C29.01 6.906 34.6552 14.329 32.1128 17.6521C30.9466 19.1766 29.2795 19.1398 25.0018 18.2178C18.1343 15.9637 16.6788 16.741 14.3409 17.5853C16.8485 17.1866 19.6563 17.5981 25.5875 19.9973C30.3201 21.7922 34.3018 20.7903 35.0726 18.2557C36.8721 12.3383 30.3802 5.79745 24.4406 9.92202Z" fill="black"/>
</svg>
